<mxfile host="app.diagrams.net" modified="2020-04-29T08:52:54.967Z" agent="5.0 (X11; Linux x86_64) AppleWebKit/537.36 (KHTML, like Gecko) Chrome/80.0.3987.162 Safari/537.36" etag="0CURajYOZyQAwIo-MVC9" version="13.0.1" type="github">
  <diagram id="P-4YUSwAOLVj5vfewqgt" name="Page-1">
    <mxGraphModel dx="1699" dy="987" grid="1" gridSize="10" guides="1" tooltips="1" connect="1" arrows="1" fold="1" page="1" pageScale="1" pageWidth="827" pageHeight="1169" math="0" shadow="0">
      <root>
        <mxCell id="0" />
        <mxCell id="1" parent="0" />
        <mxCell id="rYlfQtHNiUckKWKj5z0R-1" value="ClientSocketHandler" style="rounded=0;whiteSpace=wrap;html=1;fillColor=#f5f5f5;strokeColor=#000000;fontColor=#333333;" vertex="1" parent="1">
          <mxGeometry x="40" y="140" width="560" height="20" as="geometry" />
        </mxCell>
        <mxCell id="rYlfQtHNiUckKWKj5z0R-2" value="" style="rounded=0;whiteSpace=wrap;html=1;fillColor=none;" vertex="1" parent="1">
          <mxGeometry x="40" y="160" width="560" height="700" as="geometry" />
        </mxCell>
        <mxCell id="rYlfQtHNiUckKWKj5z0R-3" style="edgeStyle=orthogonalEdgeStyle;rounded=0;orthogonalLoop=1;jettySize=auto;html=1;exitX=0.5;exitY=1;exitDx=0;exitDy=0;entryX=0.25;entryY=0;entryDx=0;entryDy=0;endArrow=classic;endFill=1;" edge="1" parent="1" source="rYlfQtHNiUckKWKj5z0R-4" target="rYlfQtHNiUckKWKj5z0R-8">
          <mxGeometry relative="1" as="geometry" />
        </mxCell>
        <mxCell id="rYlfQtHNiUckKWKj5z0R-4" value="" style="image;html=1;labelBackgroundColor=#ffffff;image=img/lib/clip_art/people/Suit_Man_128x128.png" vertex="1" parent="1">
          <mxGeometry x="160" y="40" width="80" height="80" as="geometry" />
        </mxCell>
        <mxCell id="rYlfQtHNiUckKWKj5z0R-5" style="edgeStyle=orthogonalEdgeStyle;rounded=0;orthogonalLoop=1;jettySize=auto;html=1;exitX=0.5;exitY=1;exitDx=0;exitDy=0;entryX=0.75;entryY=0;entryDx=0;entryDy=0;endArrow=classic;endFill=1;" edge="1" parent="1" source="rYlfQtHNiUckKWKj5z0R-6" target="rYlfQtHNiUckKWKj5z0R-8">
          <mxGeometry relative="1" as="geometry" />
        </mxCell>
        <mxCell id="rYlfQtHNiUckKWKj5z0R-6" value="" style="image;html=1;labelBackgroundColor=#ffffff;image=img/lib/clip_art/people/Suit_Woman_128x128.png" vertex="1" parent="1">
          <mxGeometry x="400" y="40" width="80" height="80" as="geometry" />
        </mxCell>
        <mxCell id="rYlfQtHNiUckKWKj5z0R-7" style="edgeStyle=orthogonalEdgeStyle;rounded=0;orthogonalLoop=1;jettySize=auto;html=1;exitX=0.5;exitY=1;exitDx=0;exitDy=0;entryX=0.5;entryY=0;entryDx=0;entryDy=0;endArrow=classic;endFill=1;" edge="1" parent="1" source="rYlfQtHNiUckKWKj5z0R-8" target="rYlfQtHNiUckKWKj5z0R-21">
          <mxGeometry relative="1" as="geometry" />
        </mxCell>
        <mxCell id="rYlfQtHNiUckKWKj5z0R-8" value="New client socket" style="rounded=1;whiteSpace=wrap;html=1;fillColor=none;" vertex="1" parent="1">
          <mxGeometry x="80" y="180" width="480" height="40" as="geometry" />
        </mxCell>
        <mxCell id="rYlfQtHNiUckKWKj5z0R-9" style="edgeStyle=orthogonalEdgeStyle;rounded=0;orthogonalLoop=1;jettySize=auto;html=1;exitX=0;exitY=0.5;exitDx=0;exitDy=0;entryX=0.25;entryY=0;entryDx=0;entryDy=0;endArrow=classic;endFill=1;" edge="1" parent="1" source="rYlfQtHNiUckKWKj5z0R-11" target="rYlfQtHNiUckKWKj5z0R-14">
          <mxGeometry relative="1" as="geometry">
            <Array as="points">
              <mxPoint x="200" y="420" />
            </Array>
          </mxGeometry>
        </mxCell>
        <mxCell id="rYlfQtHNiUckKWKj5z0R-10" style="edgeStyle=orthogonalEdgeStyle;rounded=0;orthogonalLoop=1;jettySize=auto;html=1;exitX=0.5;exitY=1;exitDx=0;exitDy=0;entryX=0.5;entryY=0;entryDx=0;entryDy=0;endArrow=classic;endFill=1;" edge="1" parent="1" source="rYlfQtHNiUckKWKj5z0R-11" target="rYlfQtHNiUckKWKj5z0R-16">
          <mxGeometry relative="1" as="geometry" />
        </mxCell>
        <mxCell id="rYlfQtHNiUckKWKj5z0R-11" value="Decoder socket available?" style="rhombus;whiteSpace=wrap;html=1;fillColor=none;" vertex="1" parent="1">
          <mxGeometry x="240" y="380" width="160" height="80" as="geometry" />
        </mxCell>
        <mxCell id="rYlfQtHNiUckKWKj5z0R-12" style="edgeStyle=orthogonalEdgeStyle;rounded=0;orthogonalLoop=1;jettySize=auto;html=1;exitX=0;exitY=0.5;exitDx=0;exitDy=0;entryX=0;entryY=0.5;entryDx=0;entryDy=0;" edge="1" parent="1" source="rYlfQtHNiUckKWKj5z0R-14" target="rYlfQtHNiUckKWKj5z0R-8">
          <mxGeometry relative="1" as="geometry">
            <Array as="points">
              <mxPoint x="60" y="820" />
              <mxPoint x="60" y="200" />
            </Array>
          </mxGeometry>
        </mxCell>
        <mxCell id="rYlfQtHNiUckKWKj5z0R-13" style="edgeStyle=orthogonalEdgeStyle;rounded=0;orthogonalLoop=1;jettySize=auto;html=1;exitX=1;exitY=0.5;exitDx=0;exitDy=0;entryX=1;entryY=0.5;entryDx=0;entryDy=0;endArrow=classic;endFill=1;" edge="1" parent="1" source="rYlfQtHNiUckKWKj5z0R-14" target="rYlfQtHNiUckKWKj5z0R-8">
          <mxGeometry relative="1" as="geometry">
            <Array as="points">
              <mxPoint x="580" y="820" />
              <mxPoint x="580" y="200" />
            </Array>
          </mxGeometry>
        </mxCell>
        <mxCell id="rYlfQtHNiUckKWKj5z0R-14" value="Close client socket" style="rounded=1;whiteSpace=wrap;html=1;fillColor=none;" vertex="1" parent="1">
          <mxGeometry x="80" y="800" width="480" height="40" as="geometry" />
        </mxCell>
        <mxCell id="rYlfQtHNiUckKWKj5z0R-15" style="edgeStyle=orthogonalEdgeStyle;rounded=0;orthogonalLoop=1;jettySize=auto;html=1;exitX=0.5;exitY=1;exitDx=0;exitDy=0;entryX=0.5;entryY=0;entryDx=0;entryDy=0;endArrow=classic;endFill=1;" edge="1" parent="1" source="rYlfQtHNiUckKWKj5z0R-16" target="rYlfQtHNiUckKWKj5z0R-26">
          <mxGeometry relative="1" as="geometry" />
        </mxCell>
        <mxCell id="rYlfQtHNiUckKWKj5z0R-16" value="Processing request" style="rounded=1;whiteSpace=wrap;html=1;fillColor=none;" vertex="1" parent="1">
          <mxGeometry x="240" y="500" width="160" height="40" as="geometry" />
        </mxCell>
        <mxCell id="rYlfQtHNiUckKWKj5z0R-17" style="edgeStyle=orthogonalEdgeStyle;rounded=0;orthogonalLoop=1;jettySize=auto;html=1;exitX=0.5;exitY=1;exitDx=0;exitDy=0;entryX=0.5;entryY=0;entryDx=0;entryDy=0;endArrow=classic;endFill=1;" edge="1" parent="1" source="rYlfQtHNiUckKWKj5z0R-18" target="rYlfQtHNiUckKWKj5z0R-14">
          <mxGeometry relative="1" as="geometry" />
        </mxCell>
        <mxCell id="rYlfQtHNiUckKWKj5z0R-18" value="Request completed" style="rounded=1;whiteSpace=wrap;html=1;fillColor=none;" vertex="1" parent="1">
          <mxGeometry x="240" y="720" width="160" height="40" as="geometry" />
        </mxCell>
        <mxCell id="rYlfQtHNiUckKWKj5z0R-19" style="edgeStyle=orthogonalEdgeStyle;rounded=0;orthogonalLoop=1;jettySize=auto;html=1;exitX=0.5;exitY=1;exitDx=0;exitDy=0;entryX=0.5;entryY=0;entryDx=0;entryDy=0;endArrow=classic;endFill=1;" edge="1" parent="1" source="rYlfQtHNiUckKWKj5z0R-21" target="rYlfQtHNiUckKWKj5z0R-11">
          <mxGeometry relative="1" as="geometry" />
        </mxCell>
        <mxCell id="rYlfQtHNiUckKWKj5z0R-20" style="edgeStyle=orthogonalEdgeStyle;rounded=0;orthogonalLoop=1;jettySize=auto;html=1;exitX=1;exitY=0.5;exitDx=0;exitDy=0;entryX=0.75;entryY=0;entryDx=0;entryDy=0;endArrow=classic;endFill=1;" edge="1" parent="1" source="rYlfQtHNiUckKWKj5z0R-21" target="rYlfQtHNiUckKWKj5z0R-14">
          <mxGeometry relative="1" as="geometry" />
        </mxCell>
        <mxCell id="rYlfQtHNiUckKWKj5z0R-21" value="Processing request &lt;br&gt;from current IP?" style="rhombus;whiteSpace=wrap;html=1;fillColor=none;" vertex="1" parent="1">
          <mxGeometry x="240" y="260" width="160" height="80" as="geometry" />
        </mxCell>
        <mxCell id="rYlfQtHNiUckKWKj5z0R-22" value="N" style="text;html=1;strokeColor=none;fillColor=none;align=center;verticalAlign=middle;whiteSpace=wrap;rounded=0;" vertex="1" parent="1">
          <mxGeometry x="320" y="340" width="20" height="20" as="geometry" />
        </mxCell>
        <mxCell id="rYlfQtHNiUckKWKj5z0R-23" value="Y" style="text;html=1;strokeColor=none;fillColor=none;align=center;verticalAlign=middle;whiteSpace=wrap;rounded=0;" vertex="1" parent="1">
          <mxGeometry x="400" y="280" width="20" height="20" as="geometry" />
        </mxCell>
        <mxCell id="rYlfQtHNiUckKWKj5z0R-24" style="edgeStyle=orthogonalEdgeStyle;rounded=0;orthogonalLoop=1;jettySize=auto;html=1;exitX=0;exitY=0.5;exitDx=0;exitDy=0;entryX=0;entryY=0.5;entryDx=0;entryDy=0;endArrow=classic;endFill=1;" edge="1" parent="1" source="rYlfQtHNiUckKWKj5z0R-26" target="rYlfQtHNiUckKWKj5z0R-16">
          <mxGeometry relative="1" as="geometry" />
        </mxCell>
        <mxCell id="rYlfQtHNiUckKWKj5z0R-25" style="edgeStyle=orthogonalEdgeStyle;rounded=0;orthogonalLoop=1;jettySize=auto;html=1;exitX=0.5;exitY=1;exitDx=0;exitDy=0;entryX=0.5;entryY=0;entryDx=0;entryDy=0;endArrow=classic;endFill=1;" edge="1" parent="1" source="rYlfQtHNiUckKWKj5z0R-26" target="rYlfQtHNiUckKWKj5z0R-18">
          <mxGeometry relative="1" as="geometry" />
        </mxCell>
        <mxCell id="rYlfQtHNiUckKWKj5z0R-26" value="Decoder socket closed?" style="rhombus;whiteSpace=wrap;html=1;fillColor=none;" vertex="1" parent="1">
          <mxGeometry x="240" y="580" width="160" height="80" as="geometry" />
        </mxCell>
        <mxCell id="rYlfQtHNiUckKWKj5z0R-27" value="N" style="text;html=1;strokeColor=none;fillColor=none;align=center;verticalAlign=middle;whiteSpace=wrap;rounded=0;" vertex="1" parent="1">
          <mxGeometry x="220" y="400" width="20" height="20" as="geometry" />
        </mxCell>
        <mxCell id="rYlfQtHNiUckKWKj5z0R-28" value="Y" style="text;html=1;strokeColor=none;fillColor=none;align=center;verticalAlign=middle;whiteSpace=wrap;rounded=0;" vertex="1" parent="1">
          <mxGeometry x="320" y="460" width="20" height="20" as="geometry" />
        </mxCell>
        <mxCell id="rYlfQtHNiUckKWKj5z0R-29" value="Y" style="text;html=1;strokeColor=none;fillColor=none;align=center;verticalAlign=middle;whiteSpace=wrap;rounded=0;" vertex="1" parent="1">
          <mxGeometry x="320" y="660" width="20" height="20" as="geometry" />
        </mxCell>
        <mxCell id="rYlfQtHNiUckKWKj5z0R-30" value="N" style="text;html=1;strokeColor=none;fillColor=none;align=center;verticalAlign=middle;whiteSpace=wrap;rounded=0;" vertex="1" parent="1">
          <mxGeometry x="220" y="600" width="20" height="20" as="geometry" />
        </mxCell>
      </root>
    </mxGraphModel>
  </diagram>
</mxfile>
